<?xml version="1.0" encoding="utf-8"?>
<!DOCTYPE svg PUBLIC "-//W3C//DTD SVG 1.1//EN" "http://www.w3.org/Graphics/SVG/1.1/DTD/svg11.dtd">
<svg version="1.1" baseProfile="full"
 xmlns="http://www.w3.org/2000/svg"
 xmlns:xlink="http://www.w3.org/1999/xlink"
 xmlns:ev="http://www.w3.org/2001/xml-events" 
  height="13px" 
  width="13px" 
>
<path fill="rgb( 36, 222, 224 )"
 d="M10.98,2.019 C9.62100000000009,0.66 7.41699999999992,0.66 6.05799999999999,2.019 C4.971,3.106 4.75399999999991,4.734 5.40599999999995,6.037 C5.40599999999995,6.037 0.00299999999993,11.439 0.00299999999993,11.439 C0.00299999999993,11.439 0,12.996 0,12.996 C0,12.996 3.02099999999996,13 3.02099999999996,13 C3.02099999999996,13 3.02099999999996,11.531 3.02099999999996,11.531 C3.02099999999996,11.531 4.49099999999999,11.531 4.49099999999999,11.531 C4.49099999999999,11.531 4.49099999999999,10.062 4.49099999999999,10.062 C4.49099999999999,10.062 5.96000000000004,10.062 5.96000000000004,10.062 C5.96000000000004,10.062 5.96000000000004,8.592 5.96000000000004,8.592 C5.96000000000004,8.592 6.96100000000001,7.592 6.96100000000001,7.592 C8.2650000000001,8.244 9.89300000000003,8.027 10.98,6.94 C12.3399999999999,5.581 12.3399999999999,3.378 10.98,2.019 ZM9.87400000000002,4.613 C9.46299999999997,5.024 8.79700000000003,5.024 8.38599999999997,4.613 C7.97499999999991,4.202 7.97499999999991,3.536 8.38599999999997,3.125 C8.79700000000003,2.714 9.46299999999997,2.714 9.87400000000002,3.125 C10.2850000000001,3.536 10.2850000000001,4.202 9.87400000000002,4.613 Z "/>
</svg>
