<?xml version="1.0" encoding="utf-8"?>
<!DOCTYPE svg PUBLIC "-//W3C//DTD SVG 1.1//EN" "http://www.w3.org/Graphics/SVG/1.1/DTD/svg11.dtd">
<svg version="1.1" baseProfile="full"
 xmlns="http://www.w3.org/2000/svg"
 xmlns:xlink="http://www.w3.org/1999/xlink"
 xmlns:ev="http://www.w3.org/2001/xml-events" 
  height="40px" 
  width="40px" 
>
<path stroke="rgb( 255, 255, 255 )" stroke-width="1px" stroke-linecap="butt" stroke-linejoin="miter" fill="rgb( 255, 255, 255 )"
 d="M34.1420000000001,5.85800000000017 C30.365,2.07999999999993 25.342,0 20,0 C14.658,0 9.63499999999999,2.07999999999993 5.85799999999995,5.85800000000017 C2.08000000000004,9.63500000000022 0,14.6579999999999 0,20 C0,25.3420000000001 2.08000000000004,30.3649999999998 5.85799999999995,34.1419999999998 C9.63499999999999,37.9189999999999 14.658,40 20,40 C25.342,40 30.365,37.9189999999999 34.1420000000001,34.1419999999998 C37.919,30.3649999999998 40,25.3420000000001 40,20 C40,14.6579999999999 37.919,9.63500000000022 34.1420000000001,5.85800000000017 ZM29.373,8.596 C29.373,8.596 30.253,4.94300000000021 30.253,4.94300000000021 C33.754,7.33500000000004 36.381,10.9140000000002 37.551,15.096 C37.551,15.096 37.091,15.1849999999999 37.091,15.1849999999999 C36.403,15.317 35.849,15.8420000000001 35.681,16.5219999999999 C35.681,16.5219999999999 35.502,17.2420000000002 35.502,17.2420000000002 C35.5,17.25 35.499,17.2550000000001 35.486,17.2600000000002 C35.473,17.2649999999999 35.468,17.261 35.462,17.2559999999999 C35.462,17.2559999999999 34.395,16.4560000000001 34.395,16.4560000000001 C33.842,16.0410000000002 33.088,15.9810000000002 32.476,16.3009999999999 C32.476,16.3009999999999 31.144,16.998 31.144,16.998 C30.506,17.3330000000001 30.136,17.9870000000001 30.181,18.7069999999999 C30.225,19.4270000000001 30.672,20.0309999999999 31.347,20.2849999999999 C31.347,20.2849999999999 31.41,20.3090000000002 31.41,20.3090000000002 C31.418,20.3110000000001 31.423,20.3130000000001 31.426,20.326 C31.43,20.3389999999999 31.426,20.3440000000001 31.421,20.3490000000002 C31.421,20.3490000000002 30.591,21.3029999999999 30.591,21.3029999999999 C30.583,21.3130000000001 30.568,21.3150000000001 30.558,21.308 C30.558,21.308 28.322,19.8649999999998 28.322,19.8649999999998 C27.809,19.5349999999999 27.17,19.4850000000001 26.612,19.7330000000002 C26.054,19.98 25.663,20.4870000000001 25.564,21.0889999999999 C25.564,21.0889999999999 25.3920000000001,22.1439999999998 25.3920000000001,22.1439999999998 C25.294,22.739 25.499,23.3400000000001 25.939,23.752 C25.939,23.752 27.105,24.8429999999998 27.105,24.8429999999998 C27.115,24.8519999999999 27.116,24.866 27.109,24.8760000000002 C27.109,24.8760000000002 25.2089999999999,27.7570000000001 25.2089999999999,27.7570000000001 C25.028,28.0309999999999 24.925,28.3499999999999 24.912,28.6779999999999 C24.912,28.6779999999999 24.747,32.8029999999999 24.747,32.8029999999999 C24.747,32.8090000000002 24.744,32.8150000000001 24.739,32.8200000000002 C24.739,32.8200000000002 22.2089999999999,35.3000000000002 22.2089999999999,35.3000000000002 C22.2,35.3090000000002 22.187,35.3099999999999 22.177,35.3040000000001 C22.177,35.3040000000001 20.5359999999999,34.3429999999998 20.5359999999999,34.3429999999998 C20.53,34.3389999999999 20.526,34.3330000000001 20.524,34.326 C20.524,34.326 19.728,30.7139999999999 19.698,30.6329999999998 C19.698,30.6329999999998 18.974,28.6909999999998 18.974,28.6909999999998 C18.732,28.0410000000002 18.13,27.5830000000001 17.441,27.5230000000001 C17.441,27.5230000000001 14.128,27.2350000000001 14.128,27.2350000000001 C14.12,27.2350000000001 14.112,27.23 14.1079999999999,27.2220000000002 C14.1079999999999,27.2220000000002 12.223,23.973 12.223,23.973 C12.22,23.9679999999998 12.2190000000001,23.962 12.22,23.9560000000001 C12.22,23.9560000000001 12.694,20.8049999999998 12.694,20.8049999999998 C12.6950000000001,20.7979999999998 12.699,20.7919999999999 12.704,20.788 C12.704,20.788 15.598,18.605 15.598,18.605 C15.605,18.5999999999999 15.615,18.598 15.623,18.6019999999999 C15.623,18.6019999999999 18.427,19.7719999999999 18.427,19.7719999999999 C18.587,19.8380000000002 18.755,19.8809999999999 18.926,19.9000000000001 C18.926,19.9000000000001 22.809,20.3220000000001 22.809,20.3220000000001 C23.252,20.3699999999999 23.694,20.2539999999999 24.055,19.9949999999999 C24.055,19.9949999999999 26.628,18.1509999999998 26.628,18.1509999999998 C27.321,17.654 27.572,16.7280000000001 27.224,15.9490000000001 C27.224,15.9490000000001 26.985,15.415 26.985,15.415 C26.708,14.7950000000001 26.115,14.3870000000002 25.437,14.3499999999999 C25.437,14.3499999999999 18.212,13.9540000000002 18.212,13.9540000000002 C18.208,13.9540000000002 18.204,13.953 18.2,13.951 C18.193,13.9470000000001 18.189,13.9430000000002 18.189,13.9430000000002 C18.189,13.9430000000002 18.189,13.9430000000002 18.189,13.9430000000002 C18.1849999999999,13.9349999999999 18.188,13.915 18.192,13.9090000000001 C18.193,13.9079999999999 18.198,13.9059999999999 18.206,13.904 C18.206,13.904 20.376,13.319 20.376,13.319 C20.663,13.2420000000002 20.928,13.0929999999998 21.144,12.8890000000001 C21.144,12.8890000000001 23.797,10.386 23.797,10.386 C23.801,10.3820000000001 23.806,10.3800000000001 23.812,10.3789999999999 C23.812,10.3789999999999 27.805,9.96799999999985 27.805,9.96799999999985 C28.564,9.88999999999987 29.1950000000001,9.33899999999994 29.373,8.596 ZM15.85,7.12800000000016 C15.85,7.12800000000016 17.342,4.31899999999996 17.342,4.31899999999996 C17.563,3.904 17.6319999999999,3.42099999999982 17.538,2.96099999999979 C17.538,2.96099999999979 17.335,1.97299999999996 17.335,1.97299999999996 C18.205,1.8449999999998 19.095,1.77799999999979 20,1.77799999999979 C20.913,1.77799999999979 21.8099999999999,1.846 22.687,1.97600000000011 C22.687,1.97600000000011 22.473,2.21000000000004 22.436,2.22499999999991 C22.436,2.22499999999991 20.322,3.07200000000012 20.322,3.07200000000012 C20.02,3.19399999999996 19.749,3.38900000000012 19.537,3.63599999999997 C19.537,3.63599999999997 16.2430000000001,7.48500000000013 16.2430000000001,7.48500000000013 C16.199,7.53800000000001 16.133,7.56899999999996 16.0650000000001,7.57200000000012 C15.96,7.57700000000023 15.895,7.51899999999978 15.865,7.48599999999988 C15.748,7.35500000000002 15.838,7.15000000000009 15.85,7.12800000000016 ZM8.08000000000004,6.22800000000007 C8.08000000000004,6.22800000000007 8.08000000000004,8.89499999999998 8.08000000000004,8.89499999999998 C8.08000000000004,9.63999999999987 7.70699999999999,10.326 7.08199999999999,10.7310000000002 C7.08199999999999,10.7310000000002 5.16800000000001,11.973 5.16800000000001,11.973 C4.72400000000005,12.261 4.34799999999996,12.6280000000002 4.04999999999995,13.0650000000001 C4.04999999999995,13.0650000000001 2.31299999999999,15.6100000000001 2.31299999999999,15.6100000000001 C3.23199999999997,11.9090000000001 5.28399999999999,8.65099999999984 8.08000000000004,6.22800000000007 ZM9.24199999999996,32.4670000000001 C9.24199999999996,32.4670000000001 8.99000000000001,34.509 8.99000000000001,34.509 C6.13999999999999,32.3420000000001 3.94600000000003,29.3560000000002 2.76099999999997,25.9059999999999 C2.76099999999997,25.9059999999999 3.89200000000005,25.9059999999999 3.89200000000005,25.9059999999999 C4.03099999999995,25.9059999999999 4.15899999999999,25.9760000000001 4.23400000000004,26.0920000000001 C4.23400000000004,26.0920000000001 6.52099999999996,29.6559999999999 6.52099999999996,29.6559999999999 C6.62400000000002,29.8159999999998 6.74599999999998,29.9609999999998 6.88699999999994,30.0889999999999 C6.88699999999994,30.0889999999999 9.11199999999997,32.1190000000001 9.11199999999997,32.1190000000001 C9.20899999999995,32.2069999999999 9.25800000000004,32.3380000000002 9.24199999999996,32.4670000000001 ZM20,38.2220000000002 C16.581,38.2220000000002 13.38,37.2750000000001 10.643,35.6300000000001 C10.643,35.6300000000001 11.006,32.6849999999999 11.006,32.6849999999999 C11.092,31.9839999999999 10.832,31.2809999999999 10.3099999999999,30.8049999999998 C10.3099999999999,30.8049999999998 8.03599999999994,28.7249999999999 8.01700000000005,28.6959999999999 C8.01700000000005,28.6959999999999 5.73000000000002,25.1320000000001 5.73000000000002,25.1320000000001 C5.32600000000002,24.5030000000002 4.63900000000001,24.1280000000002 3.89200000000005,24.1280000000002 C3.89200000000005,24.1280000000002 2.24900000000002,24.1280000000002 2.24900000000002,24.1280000000002 C1.94100000000003,22.8009999999999 1.77800000000002,21.4189999999999 1.77800000000002,20 C1.77800000000002,19.846 1.77999999999997,19.694 1.78300000000002,19.5410000000002 C1.78300000000002,19.5410000000002 5.51900000000001,14.067 5.51900000000001,14.067 C5.68299999999999,13.826 5.88999999999999,13.623 6.13599999999997,13.4639999999999 C6.13599999999997,13.4639999999999 8.04899999999998,12.223 8.04899999999998,12.223 C9.18100000000004,11.489 9.85799999999995,10.2440000000001 9.85799999999995,8.89499999999998 C9.85799999999995,8.89499999999998 9.85799999999995,4.86799999999994 9.85799999999995,4.86799999999994 C11.583,3.70800000000008 13.518,2.83500000000004 15.591,2.31800000000021 C15.591,2.31800000000021 15.796,3.31800000000021 15.796,3.31800000000021 C15.808,3.375 15.799,3.4340000000002 15.772,3.48500000000013 C15.772,3.48500000000013 14.28,6.29399999999987 14.28,6.29399999999987 C14.187,6.46900000000005 14.066,6.93100000000004 14.066,6.93100000000004 C13.944,7.54399999999987 14.1079999999999,8.16800000000012 14.515,8.64300000000003 C14.904,9.096 15.46,9.34999999999991 16.052,9.34999999999991 C16.081,9.34999999999991 16.9400000000001,9.39300000000003 17.5940000000001,8.64100000000008 C17.5940000000001,8.64100000000008 20.888,4.79199999999992 20.888,4.79199999999992 C20.914,4.76099999999997 20.947,4.73799999999983 20.984,4.72299999999996 C20.984,4.72299999999996 23.098,3.875 23.098,3.875 C23.399,3.75399999999991 23.669,3.56100000000015 23.88,3.31500000000005 C23.88,3.31500000000005 24.678,2.38799999999992 24.678,2.38799999999992 C26.082,2.76099999999997 27.421,3.29700000000003 28.671,3.97699999999986 C28.651,4.02399999999989 27.645,8.17999999999984 27.645,8.17999999999984 C27.6420000000001,8.1909999999998 27.633,8.19900000000007 27.622,8.19999999999982 C27.622,8.19999999999982 23.629,8.61099999999988 23.629,8.61099999999988 C23.237,8.65099999999984 22.8630000000001,8.82200000000012 22.577,9.09299999999985 C22.577,9.09299999999985 19.924,11.596 19.924,11.596 C19.921,11.5990000000002 19.917,11.6010000000001 19.913,11.6030000000001 C19.913,11.6030000000001 17.7430000000001,12.1869999999999 17.7430000000001,12.1869999999999 C17.0359999999999,12.3780000000002 16.518,12.971 16.424,13.6979999999999 C16.33,14.4250000000002 16.681,15.1300000000001 17.317,15.4940000000001 C17.5599999999999,15.6329999999998 17.835,15.7139999999999 18.114,15.7289999999998 C18.114,15.7289999999998 25.34,16.125 25.34,16.125 C25.349,16.1260000000002 25.3579999999999,16.1320000000001 25.362,16.1399999999999 C25.362,16.1399999999999 25.601,16.674 25.601,16.674 C25.605,16.6860000000001 25.602,16.6990000000001 25.592,16.7060000000001 C25.592,16.7060000000001 23.019,18.5500000000002 23.019,18.5500000000002 C23.014,18.5540000000001 23.008,18.5549999999998 23.001,18.5549999999998 C23.001,18.5549999999998 19.111,18.1309999999999 19.111,18.1309999999999 C19.111,18.1309999999999 16.308,16.9609999999998 16.308,16.9609999999998 C15.7190000000001,16.7159999999999 15.0359999999999,16.8020000000001 14.527,17.1860000000001 C14.527,17.1860000000001 11.633,19.3690000000001 11.633,19.3690000000001 C11.254,19.6550000000002 11.0069999999999,20.0709999999999 10.936,20.5410000000002 C10.936,20.5410000000002 10.462,23.692 10.462,23.692 C10.402,24.0949999999998 10.481,24.5120000000002 10.686,24.8649999999998 C10.686,24.8649999999998 12.5700000000001,28.1149999999998 12.5700000000001,28.1149999999998 C12.865,28.6219999999998 13.389,28.9560000000001 13.974,29.0070000000001 C13.974,29.0070000000001 17.287,29.2950000000001 17.287,29.2950000000001 C17.297,29.2959999999998 17.305,29.3020000000001 17.309,29.3110000000001 C17.309,29.3110000000001 18.034,31.2579999999998 18.034,31.2579999999998 C18.034,31.2579999999998 18.788,34.7060000000001 18.788,34.7060000000001 C18.895,35.1959999999999 19.205,35.623 19.638,35.877 C19.638,35.877 21.279,36.8389999999999 21.279,36.8389999999999 C21.562,37.0039999999999 21.876,37.085 22.189,37.085 C22.65,37.085 23.107,36.9090000000001 23.453,36.5700000000002 C23.453,36.5700000000002 25.984,34.0900000000001 25.984,34.0900000000001 C26.314,33.7660000000001 26.505,33.3339999999998 26.524,32.8739999999998 C26.524,32.8739999999998 26.689,28.7489999999998 26.689,28.7489999999998 C26.689,28.7449999999999 26.6900000000001,28.7399999999998 26.693,28.7359999999999 C26.693,28.7359999999999 28.593,25.855 28.593,25.855 C29.079,25.1190000000001 28.9640000000001,24.1480000000001 28.3200000000001,23.5450000000001 C28.3200000000001,23.5450000000001 27.154,22.4540000000002 27.154,22.4540000000002 C27.148,22.4479999999999 27.145,22.4400000000001 27.146,22.431 C27.146,22.431 27.319,21.377 27.319,21.377 C27.3200000000001,21.3690000000001 27.321,21.364 27.3339999999999,21.3580000000002 C27.346,21.3519999999999 27.351,21.355 27.3579999999999,21.3589999999999 C27.3579999999999,21.3589999999999 29.5940000000001,22.8020000000001 29.5940000000001,22.8020000000001 C30.342,23.2849999999999 31.348,23.143 31.933,22.4699999999998 C31.933,22.4699999999998 32.7619999999999,21.5160000000001 32.7619999999999,21.5160000000001 C33.15,21.0709999999999 33.294,20.4630000000002 33.15,19.8899999999999 C33.005,19.3180000000002 32.588,18.8519999999999 32.035,18.6439999999998 C32.035,18.6439999999998 31.972,18.6210000000001 31.972,18.6210000000001 C31.9640000000001,18.6179999999999 31.96,18.6149999999998 31.9589999999999,18.6149999999998 C31.954,18.6080000000002 31.953,18.5880000000002 31.957,18.5810000000001 C31.958,18.5810000000001 31.961,18.578 31.9690000000001,18.5740000000001 C31.9690000000001,18.5740000000001 33.301,17.8760000000002 33.301,17.8760000000002 C33.309,17.8719999999998 33.3200000000001,17.873 33.328,17.8789999999999 C33.328,17.8789999999999 34.395,18.6790000000001 34.395,18.6790000000001 C34.88,19.0430000000001 35.511,19.1379999999999 36.082,18.9349999999999 C36.653,18.732 37.082,18.259 37.228,17.6700000000001 C37.228,17.6700000000001 37.4059999999999,16.9499999999998 37.4059999999999,16.9499999999998 C37.409,16.9400000000001 37.4160000000001,16.933 37.426,16.931 C37.426,16.931 37.946,16.8310000000001 37.946,16.8310000000001 C38.127,17.8609999999999 38.222,18.9189999999999 38.222,20 C38.222,30.0479999999998 30.048,38.2220000000002 20,38.2220000000002 Z "/>
</svg>
