<?xml version="1.0" encoding="utf-8"?>
<!DOCTYPE svg PUBLIC "-//W3C//DTD SVG 1.1//EN" "http://www.w3.org/Graphics/SVG/1.1/DTD/svg11.dtd">
<svg version="1.1" baseProfile="full"
 xmlns="http://www.w3.org/2000/svg"
 xmlns:xlink="http://www.w3.org/1999/xlink"
 xmlns:ev="http://www.w3.org/2001/xml-events" 
  height="32px" 
  width="42px" 
>
<path fill="rgb( 255, 255, 255 )"
 d="M32,32 C32,32 31,30 31,30 C31,30 21,30 21,30 C21,30 21,28 21,28 C21,28 35,28 35,28 C36.168,28 37.125,26.8800000000001 37.686,25.921 C37.686,25.921 31.223,25.921 31.223,25.921 C28.516,25.921 28,24.8910000000001 28,22 C28,22 28,22 28,22 C28,22 4,22 4,22 C2.95100000000002,22 3,21.0730000000001 3,20 C3,20 3,3 3,3 C3,1.92699999999991 2.95100000000002,2 4,2 C4,2 35,2 35,2 C36.05,2 36,1.92699999999991 36,3 C36,3 36,3 36,3 C36,3 38,3 38,3 C38,3 38,2 38,2 C38,0.19100000000003 36.46,0.01600000000008 34.938,0.01600000000008 C34.938,0.01600000000008 4.19899999999996,0.01600000000008 4.19899999999996,0.01600000000008 C2.43100000000004,0.01600000000008 0.98500000000001,1.49700000000007 0.98500000000001,3.30400000000009 C0.98500000000001,3.30400000000009 0.98500000000001,24.2439999999999 0.98500000000001,24.2439999999999 C0.98500000000001,26.0519999999999 2.23400000000004,28 4,28 C4,28 18,28 18,28 C18,28 18,30 18,30 C18,30 8,30 8,30 C8,30 7,32 7,32 M39.785,4.77099999999996 C39.785,4.77099999999996 32.221,4.77099999999996 32.221,4.77099999999996 C31.013,4.77099999999996 30.023,5.78099999999995 30.023,7.01800000000003 C30.023,7.01800000000003 30.023,21.3320000000001 30.023,21.3320000000001 C30.023,22.568 30.7910000000001,24 32,24 C32,24 40,24 40,24 C41.2089999999999,24 41.984,22.568 41.984,21.3320000000001 C41.984,21.3320000000001 41.984,7.01800000000003 41.984,7.01800000000003 C41.984,5.78099999999995 40.995,4.77099999999996 39.785,4.77099999999996 ZM36.004,22.5740000000001 C35.582,22.5740000000001 35.2380000000001,22.2249999999999 35.2380000000001,21.7919999999999 C35.2380000000001,21.3599999999999 35.582,21.008 36.004,21.008 C36.425,21.008 36.768,21.3620000000001 36.768,21.7919999999999 C36.768,22.2249999999999 36.425,22.5740000000001 36.004,22.5740000000001 ZM40,19 C40,19.732 40.718,19 40,19 C40,19 32,19 32,19 C32.159,19.0699999999999 32,18.732 32,18 C32,18 32,7 32,7 C32,6.26900000000001 31.283,7 32,7 C32,7 40,7 40,7 C40.718,7 40,6.26900000000001 40,7 C40,7 40,19 40,19 Z "/>
</svg>
