<?xml version="1.0" encoding="utf-8"?>
<!DOCTYPE svg PUBLIC "-//W3C//DTD SVG 1.1//EN" "http://www.w3.org/Graphics/SVG/1.1/DTD/svg11.dtd">
<svg version="1.1" baseProfile="full"
 xmlns="http://www.w3.org/2000/svg"
 xmlns:xlink="http://www.w3.org/1999/xlink"
 xmlns:ev="http://www.w3.org/2001/xml-events" 
  height="40px" 
  width="37px" 
>
<path fill="rgb( 255, 255, 255 )"
 d="M33.2190000000001,40 C33.2190000000001,40 3.78099999999995,40 3.78099999999995,40 C1.80200000000002,40 0,38.2460000000001 0,36.3209999999999 C0,33.7619999999999 1.81799999999998,32.989 6.67700000000002,30.925 C7.76999999999998,30.46 9.00900000000001,29.933 10.421,29.3050000000001 C10.421,29.3050000000001 10.485,29.277 10.485,29.277 C10.485,29.277 10.535,29.325 10.535,29.325 C11.0069999999999,29.77 11.53,30.193 12.09,30.579 C12.09,30.579 12.234,30.6780000000001 12.234,30.6780000000001 C12.234,30.6780000000001 12.074,30.751 12.074,30.751 C10.303,31.5519999999999 8.76800000000003,32.2090000000001 7.46900000000005,32.761 C2.65200000000004,34.806 2.04300000000001,35.2059999999999 2.04300000000001,36.3209999999999 C2.04300000000001,37.086 2.81899999999996,38.011 3.78099999999995,38.011 C3.78099999999995,38.011 33.218,38.011 33.218,38.011 C34.18,38.011 34.956,37.086 34.956,36.3209999999999 C34.956,35.2059999999999 34.348,34.806 29.53,32.761 C28.232,32.2080000000001 26.697,31.5519999999999 24.925,30.751 C24.925,30.751 24.765,30.6780000000001 24.765,30.6780000000001 C24.765,30.6780000000001 24.909,30.579 24.909,30.579 C25.47,30.192 25.992,29.77 26.465,29.325 C26.465,29.325 26.515,29.277 26.515,29.277 C26.515,29.277 26.578,29.3050000000001 26.578,29.3050000000001 C27.989,29.934 29.229,30.46 30.322,30.925 C35.182,32.989 37,33.7619999999999 37,36.3209999999999 C37,38.2460000000001 35.198,40 33.2190000000001,40 ZM32.889,22 C32.889,22 30.833,22 30.833,22 C30.16,22 29.591,21.664 29.216,21.1780000000001 C27.899,26.864 23.599,31.049 18.5,31.049 C13.521,31.049 9.29700000000003,27.0630000000001 7.87300000000005,21.5820000000001 C7.79899999999998,21.499 7.74400000000003,21.412 7.68200000000002,21.326 C7.30499999999995,21.732 6.774,22 6.16700000000003,22 C6.16700000000003,22 4.11099999999999,22 4.11099999999999,22 C2.976,22 2.05600000000004,21.105 2.05600000000004,20 C2.05600000000004,20 2.05600000000004,14 2.05600000000004,14 C2.05600000000004,12.895 2.976,12 4.11099999999999,12 C4.11099999999999,12 6.16700000000003,12 6.16700000000003,12 C6.16700000000003,5.37200000000007 11.689,0 18.5,0 C25.311,0 30.833,5.37200000000007 30.833,12 C30.833,12 32.889,12 32.889,12 C34.024,12 34.944,12.895 34.944,14 C34.944,14 34.944,20 34.944,20 C34.944,21.105 34.024,22 32.889,22 ZM6.16700000000003,14 C6.16700000000003,14 4.11099999999999,14 4.11099999999999,14 C4.11099999999999,14 4.11099999999999,20 4.11099999999999,20 C4.11099999999999,20 6.16700000000003,20 6.16700000000003,20 C6.16700000000003,20 6.16700000000003,14 6.16700000000003,14 ZM9.73900000000003,20.5920000000001 C11.033,21.5940000000001 14.886,23 18.5,23 C19.068,23 19.528,23.4469999999999 19.528,24 C19.528,24.5519999999999 19.068,25 18.5,25 C16.3099999999999,25 13.117,24.424 10.681,23.3920000000001 C12.268,26.779 15.175,29.0609999999999 18.5,29.0609999999999 C23.515,29.0609999999999 27.597,23.886 27.597,17.5239999999999 C27.597,11.163 23.515,5.98800000000006 18.5,5.98800000000006 C13.484,5.98800000000006 9.40300000000002,11.163 9.40300000000002,17.5239999999999 C9.40300000000002,18.588 9.52599999999995,19.6130000000001 9.73900000000003,20.5920000000001 ZM18.5,2 C12.833,2 8.22199999999998,6.4860000000001 8.22199999999998,12 C8.22199999999998,12.0809999999999 8.245,12.1569999999999 8.24699999999996,12.2380000000001 C9.94600000000003,7.40100000000007 13.902,4 18.5,4 C23.098,4 27.054,7.40100000000007 28.753,12.2380000000001 C28.755,12.1569999999999 28.778,12.0809999999999 28.778,12 C28.778,6.4860000000001 24.167,2 18.5,2 ZM32.889,14 C32.889,14 30.833,14 30.833,14 C30.833,14 30.833,20 30.833,20 C30.833,20 32.889,20 32.889,20 C32.889,20 32.889,14 32.889,14 Z "/>
</svg>
