<?xml version="1.0" encoding="utf-8"?>
<!DOCTYPE svg PUBLIC "-//W3C//DTD SVG 1.1//EN" "http://www.w3.org/Graphics/SVG/1.1/DTD/svg11.dtd">
<svg version="1.1" baseProfile="full"
 xmlns="http://www.w3.org/2000/svg"
 xmlns:xlink="http://www.w3.org/1999/xlink"
 xmlns:ev="http://www.w3.org/2001/xml-events" 
  height="40px" 
  width="38px" 
>
<path fill="rgb( 255, 255, 255 )"
 d="M37,12 C37,12 28,12 28,12 C28,12 28,1 28,1 C28,0.60500000000002 27.251,0 26.857,0 C26.857,0 11.143,0 11.143,0 C10.748,0 10,0.60500000000002 10,1 C10,1 10,12 10,12 C10,12 1,12 1,12 C0.60599999999999,12 0,12.748 0,13.143 C0,13.143 0,39.2860000000001 0,39.2860000000001 C0,39.6800000000001 0.31999999999994,40 0.71399999999994,40 C0.71399999999994,40 11.143,40 11.143,40 C11.143,40 16.143,40 16.143,40 C16.143,40 21.857,40 21.857,40 C21.857,40 26.857,40 26.857,40 C26.857,40 37.2860000000001,40 37.2860000000001,40 C37.6800000000001,40 38,39.6800000000001 38,39.2860000000001 C38,39.2860000000001 38,13.143 38,13.143 C38,12.748 37.394,12 37,12 ZM10,38 C10,38 2,38 2,38 C2,38 2,14 2,14 C2,14 10,14 10,14 C10,14 10,38 10,38 ZM21,38 C21,38 17,38 17,38 C17,38 17,30 17,30 C17,30 21,30 21,30 C21,30 21,38 21,38 ZM26,13 C26,13 26,38 26,38 C26,38 23,38 23,38 C23,38 23,30 23,30 C23,30 24,30 24,30 C24,30 24,28 24,28 C24,28 22,28 22,28 C22,28 16,28 16,28 C16,28 14,28 14,28 C14,28 14,30 14,30 C14,30 15,30 15,30 C15,30 15,38 15,38 C15,38 12,38 12,38 C12,38 12,12 12,12 C12,12 12,2 12,2 C12,2 26,2 26,2 C26,2 26,13 26,13 ZM36,38 C36,38 28,38 28,38 C28,38 28,14 28,14 C28,14 36,14 36,14 C36,14 36,38 36,38 ZM3.85699999999997,17 C3.85699999999997,17 3.85699999999997,19.857 3.85699999999997,19.857 M2.85699999999997,26.4280000000001 C2.85699999999997,26.4280000000001 2.85699999999997,29.2860000000001 2.85699999999997,29.2860000000001 M18,4 C18,4 14,4 14,4 C13.606,4 14,3.60599999999999 14,4 C14,4 14,8 14,8 C14,8.39400000000001 13.606,8 14,8 C14,8 16,8 16,8 C16.394,8 18,8.39400000000001 18,8 C18,8 18,4 18,4 C18,3.60599999999999 18.394,4 18,4 ZM24,4 C24,4 20,4 20,4 C19.606,4 20,3.60599999999999 20,4 C20,4 20,8 20,8 C20,8.39400000000001 19.606,8 20,8 C20,8 22,8 22,8 C22.394,8 24,8.39400000000001 24,8 C24,8 24,4 24,4 C24,3.60599999999999 24.394,4 24,4 ZM18,10 C18,10 14,10 14,10 C13.606,10 14,9.60500000000002 14,10 C14,10 14,14 14,14 C14,14.394 13.606,14 14,14 C14,14 16,14 16,14 C16.394,14 18,14.394 18,14 C18,14 18,10 18,10 C18,9.60500000000002 18.394,10 18,10 ZM24,10 C24,10 20,10 20,10 C19.606,10 20,9.60500000000002 20,10 C20,10 20,14 20,14 C20,14.394 19.606,14 20,14 C20,14 22,14 22,14 C22.394,14 24,14.394 24,14 C24,14 24,10 24,10 C24,9.60500000000002 24.394,10 24,10 ZM18,16 C18,16 14,16 14,16 C13.606,16 14,15.605 14,16 C14,16 14,20 14,20 C14,20.394 13.606,20 14,20 C14,20 16,20 16,20 C16.394,20 18,20.394 18,20 C18,20 18,16 18,16 C18,15.605 18.394,16 18,16 ZM24,16 C24,16 20,16 20,16 C19.606,16 20,15.605 20,16 C20,16 20,20 20,20 C20,20.394 19.606,20 20,20 C20,20 22,20 22,20 C22.394,20 24,20.394 24,20 C24,20 24,16 24,16 C24,15.605 24.394,16 24,16 ZM18,22 C18,22 14,22 14,22 C13.606,22 14,21.606 14,22 C14,22 14,26 14,26 C14,26.394 13.606,26 14,26 C14,26 16,26 16,26 C16.394,26 18,26.394 18,26 C18,26 18,22 18,22 C18,21.606 18.394,22 18,22 ZM24,22 C24,22 20,22 20,22 C19.606,22 20,21.606 20,22 C20,22 20,26 20,26 C20,26.394 19.606,26 20,26 C20,26 22,26 22,26 C22.394,26 24,26.394 24,26 C24,26 24,22 24,22 C24,21.606 24.394,22 24,22 ZM8,16 C8,16 4,16 4,16 C3.60599999999999,16 4,15.605 4,16 C4,16 4,20 4,20 C4,20.394 3.60599999999999,20 4,20 C4,20 6,20 6,20 C6.39400000000001,20 8,20.394 8,20 C8,20 8,16 8,16 C8,15.605 8.39400000000001,16 8,16 ZM3.85699999999997,23 C3.85699999999997,23 3.85699999999997,25.857 3.85699999999997,25.857 M8,22 C8,22 4,22 4,22 C3.60599999999999,22 4,21.606 4,22 C4,22 4,26 4,26 C4,26.394 3.60599999999999,26 4,26 C4,26 6,26 6,26 C6.39400000000001,26 8,26.394 8,26 C8,26 8,22 8,22 C8,21.606 8.39400000000001,22 8,22 ZM3.85699999999997,29 C3.85699999999997,29 3.85699999999997,31.857 3.85699999999997,31.857 M8,28 C8,28 4,28 4,28 C3.60599999999999,28 4,27.606 4,28 C4,28 4,32 4,32 C4,32.394 3.60599999999999,32 4,32 C4,32 6,32 6,32 C6.39400000000001,32 8,32.394 8,32 C8,32 8,28 8,28 C8,27.606 8.39400000000001,28 8,28 ZM29.857,17 C29.857,17 29.857,19.857 29.857,19.857 M34,16 C34,16 30,16 30,16 C29.606,16 30,15.605 30,16 C30,16 30,20 30,20 C30,20.394 29.606,20 30,20 C30,20 32,20 32,20 C32.394,20 34,20.394 34,20 C34,20 34,16 34,16 C34,15.605 34.394,16 34,16 ZM29.857,23 C29.857,23 29.857,25.857 29.857,25.857 M34,22 C34,22 30,22 30,22 C29.606,22 30,21.606 30,22 C30,22 30,26 30,26 C30,26.394 29.606,26 30,26 C30,26 32,26 32,26 C32.394,26 34,26.394 34,26 C34,26 34,22 34,22 C34,21.606 34.394,22 34,22 ZM29.857,29 C29.857,29 29.857,31.857 29.857,31.857 M34,28 C34,28 30,28 30,28 C29.606,28 30,27.606 30,28 C30,28 30,32 30,32 C30,32.394 29.606,32 30,32 C30,32 32,32 32,32 C32.394,32 34,32.394 34,32 C34,32 34,28 34,28 C34,27.606 34.394,28 34,28 Z "/>
</svg>
