<?xml version="1.0" encoding="utf-8"?>
<!DOCTYPE svg PUBLIC "-//W3C//DTD SVG 1.1//EN" "http://www.w3.org/Graphics/SVG/1.1/DTD/svg11.dtd">
<svg version="1.1" baseProfile="full"
 xmlns="http://www.w3.org/2000/svg"
 xmlns:xlink="http://www.w3.org/1999/xlink"
 xmlns:ev="http://www.w3.org/2001/xml-events" 
  height="31px" 
  width="159px" 
>
<path fill="rgb( 255, 255, 255 )"
 d="M21.42,21.399 C21.293,21.393 17.3680000000001,11.988 17.3680000000001,11.988 C17.3680000000001,11.988 8.49099999999999,31 8.49099999999999,31 C8.49099999999999,31 0,31 0,31 C0,31 13.701,1.258 13.701,1.258 C13.701,1.258 21.034,1.258 21.034,1.258 C21.034,1.258 29.9109999999999,21.399 29.9109999999999,21.399 C29.9109999999999,21.399 21.674,21.414 21.42,21.399 Z "/>
<path fill="rgb( 36, 222, 224 )"
 d="M29.429,1.07 C37.902,1.07 44.77,7.77 44.77,16.035 C44.77,24.3 37.902,31 29.429,31 M29.313,8.594 C33.575,8.594 37.0309999999999,11.965 37.0309999999999,16.125 C37.0309999999999,20.284 33.575,23.656 29.313,23.656 C25.049,23.656 21.5940000000001,20.284 21.5940000000001,16.125 C21.5940000000001,11.965 25.049,8.594 29.313,8.594 ZM14.6660000000001,23.659 C14.6660000000001,23.659 30.683,23.659 30.683,23.659 C30.683,23.659 30.683,31 30.683,31 C30.683,31 11.385,31 11.385,31 C11.385,31 14.6660000000001,23.659 14.6660000000001,23.659 ZM23.736,1.07 C23.736,1.07 29.525,1.07 29.525,1.07 C29.525,1.07 29.525,8.599 29.525,8.599 C29.525,8.599 27.2089999999999,8.599 27.2089999999999,8.599 C27.2089999999999,8.599 23.736,1.07 23.736,1.07 Z "/>
<path fill="rgb( 255, 255, 255 )"
 d="M158.002,30.252 C158.002,30.252 150.34,30.252 150.34,30.252 C150.34,30.252 145.103,19.903 145.103,19.903 C145.103,19.903 141.231,19.903 141.231,19.903 C141.231,19.903 141.231,30.252 141.231,30.252 C141.231,30.252 134.078,30.252 134.078,30.252 C134.078,30.252 134.078,0.994 134.078,0.994 C134.078,0.994 145.755,0.994 145.755,0.994 C149.273,0.994 152.024,1.763 154.008,3.302 C155.991,4.841 156.983,7.016 156.983,9.826 C156.983,11.86 156.566,13.546 155.73,14.884 C154.894,16.223 153.587,17.307 151.807,18.137 C151.807,18.137 158.002,29.95 158.002,29.95 C158.002,29.95 158.002,30.252 158.002,30.252 ZM148.811,7.498 C148.119,6.779 147.1,6.419 145.755,6.419 C145.755,6.419 141.231,6.419 141.231,6.419 C141.231,6.419 141.231,14.477 141.231,14.477 C141.231,14.477 145.755,14.477 145.755,14.477 C147.113,14.477 148.135,14.125 148.822,13.42 C149.508,12.715 149.851,11.731 149.851,10.468 C149.851,9.206 149.504,8.216 148.811,7.498 ZM117.877,12.609 C117.877,12.609 129.126,12.609 129.126,12.609 C129.126,12.609 129.126,17.833 129.126,17.833 C129.126,17.833 117.877,17.833 117.877,17.833 C117.877,17.833 117.877,24.826 117.877,24.826 C117.877,24.826 131.164,24.826 131.164,24.826 C131.164,24.826 131.164,30.252 131.164,30.252 C131.164,30.252 110.724,30.252 110.724,30.252 C110.724,30.252 110.724,0.994 110.724,0.994 C110.724,0.994 131.205,0.994 131.205,0.994 C131.205,0.994 131.205,6.44 131.205,6.44 C131.205,6.44 117.877,6.44 117.877,6.44 C117.877,6.44 117.877,12.609 117.877,12.609 ZM100.484,28.433 C98.399,29.632 96.072,30.238 93.505,30.252 C93.505,30.252 83.7430000000001,30.252 83.7430000000001,30.252 C83.7430000000001,30.252 83.7430000000001,0.994 83.7430000000001,0.994 C83.7430000000001,0.994 93.301,0.994 93.301,0.994 C95.923,0.994 98.28,1.58 100.372,2.752 C102.464,3.924 104.098,5.579 105.273,7.716 C106.448,9.853 107.042,12.247 107.056,14.899 C107.056,14.899 107.056,16.246 107.056,16.246 C107.056,18.925 106.482,21.326 105.334,23.45 C104.186,25.573 102.569,27.234 100.484,28.433 ZM99.761,14.98 C99.761,12.153 99.21,10.023 98.11,8.59 C97.01,7.156 95.4059999999999,6.44 93.301,6.44 C93.301,6.44 90.896,6.44 90.896,6.44 C90.896,6.44 90.896,24.826 90.896,24.826 C90.896,24.826 93.3819999999999,24.826 93.3819999999999,24.826 C95.433,24.826 97.01,24.106 98.11,22.666 C99.21,21.226 99.761,19.086 99.761,16.246 C99.761,16.246 99.761,14.98 99.761,14.98 ZM71.638,0.994 C71.638,0.994 78.771,0.994 78.771,0.994 C78.771,0.994 78.771,30.252 78.771,30.252 C78.771,30.252 71.638,30.252 71.638,30.252 C71.638,30.252 71.638,0.994 71.638,0.994 ZM48.529,0.994 C48.529,0.994 55.682,0.994 55.682,0.994 C55.682,0.994 55.682,24.826 55.682,24.826 C55.682,24.826 68.133,24.826 68.133,24.826 C68.133,24.826 68.133,30.252 68.133,30.252 C68.133,30.252 48.529,30.252 48.529,30.252 C48.529,30.252 48.529,0.994 48.529,0.994 Z "/>
</svg>
