<svg version="1.1" baseProfile="full"
 xmlns="http://www.w3.org/2000/svg"
 xmlns:xlink="http://www.w3.org/1999/xlink"
 xmlns:ev="http://www.w3.org/2001/xml-events"
  height="50px"
  width="50px"
>
<path stroke="rgb( 255, 255, 255 )" stroke-width="3px" stroke-linecap="butt" stroke-linejoin="miter" fill-opacity="0.702" fill="none"
 d="M25,0 C38.807,0 50,11.1930000000002 50,25 C50,38.8069999999998 38.807,50 25,50 C11.193,50 0,38.8069999999998 0,25 C0,11.1930000000002 11.193,0 25,0 Z "/>
<path fill-opacity="0.702" fill="rgb( 255, 255, 255 )"
 d="M31.604,25.9850000000001 C31.604,25.9850000000001 23.3019999999999,34.585 23.3019999999999,34.585 C22.7739999999999,35.1320000000001 21.9169999999999,35.1320000000001 21.3900000000001,34.585 C20.8620000000001,34.038 20.8620000000001,33.1509999999998 21.3900000000001,32.605 C21.3900000000001,32.605 28.7360000000001,24.9949999999999 28.7360000000001,24.9949999999999 C28.7360000000001,24.9949999999999 21.3900000000001,17.3870000000002 21.3900000000001,17.3870000000002 C20.8620000000001,16.8400000000001 20.8620000000001,15.953 21.3900000000001,15.4059999999999 C21.9179999999999,14.8589999999999 22.7739999999999,14.8589999999999 23.3019999999999,15.4059999999999 C23.3019999999999,15.4059999999999 31.604,24.0059999999999 31.604,24.0059999999999 C31.8679999999999,24.279 32,24.6370000000002 32,24.9949999999999 C32,25.3539999999998 31.8679999999999,25.7130000000002 31.604,25.9850000000001 Z "/>
</svg>
