<?xml version="1.0" encoding="utf-8"?>
<!DOCTYPE svg PUBLIC "-//W3C//DTD SVG 1.1//EN" "http://www.w3.org/Graphics/SVG/1.1/DTD/svg11.dtd">
<svg version="1.1" baseProfile="full"
 xmlns="http://www.w3.org/2000/svg"
 xmlns:xlink="http://www.w3.org/1999/xlink"
 xmlns:ev="http://www.w3.org/2001/xml-events"
  height="50px"
  width="50px"
>
<path stroke="#e7e8e9" stroke-width="3px" stroke-linecap="butt" stroke-linejoin="miter" fill-opacity="0.702" fill="none"
 d="M25,0 C38.807,0 50,11.1930000000002 50,25 C50,38.8069999999998 38.807,50 25,50 C11.193,50 0,38.8069999999998 0,25 C0,11.1930000000002 11.193,0 25,0 Z "/>
<path fill-opacity="0.702" fill="#e7e8e9"
 d="M18.396,25.9850000000001 C18.396,25.9850000000001 26.698,34.585 26.698,34.585 C27.226,35.1320000000001 28.082,35.1320000000001 28.61,34.585 C29.138,34.038 29.138,33.1509999999998 28.61,32.605 C28.61,32.605 21.264,24.9949999999999 21.264,24.9949999999999 C21.264,24.9949999999999 28.61,17.3870000000002 28.61,17.3870000000002 C29.138,16.8400000000001 29.138,15.953 28.61,15.4059999999999 C28.082,14.8589999999999 27.226,14.8589999999999 26.698,15.4059999999999 C26.698,15.4059999999999 18.395,24.0059999999999 18.395,24.0059999999999 C18.131,24.279 18,24.6370000000002 18,24.9949999999999 C18,25.3539999999998 18.132,25.7130000000002 18.396,25.9850000000001 Z "/>
</svg>
