<?xml version="1.0" encoding="utf-8"?>
<!DOCTYPE svg PUBLIC "-//W3C//DTD SVG 1.1//EN" "http://www.w3.org/Graphics/SVG/1.1/DTD/svg11.dtd">
<svg version="1.1" baseProfile="full"
 xmlns="http://www.w3.org/2000/svg"
 xmlns:xlink="http://www.w3.org/1999/xlink"
 xmlns:ev="http://www.w3.org/2001/xml-events" 
  height="12px" 
  width="11px" 
>
<path fill="rgb( 255, 255, 255 )"
 d="M9.92699999999991,9.456 C9.81899999999996,9.668 9.23199999999997,10 9,10 C9,10 2,10 2,10 C1.76800000000003,10 1.18000000000006,9.668 1.07199999999989,9.456 C0.96399999999994,9.244 0.97700000000009,8.988 1.10799999999995,8.789 C1.10799999999995,8.789 2.346,6.908 2.346,6.908 C2.346,6.549 2.346,5.181 2.346,4.562 C2.346,2.979 3.43599999999992,1.66 4.88100000000009,1.362 C4.88100000000009,1.362 4.88100000000009,0.64 4.88100000000009,0.64 C4.88100000000009,0.286 5.1579999999999,0 5.5,0 C5.84099999999989,0 6.11799999999994,0.286 6.11799999999994,0.64 C6.11799999999994,0.64 6.11799999999994,1.362 6.11799999999994,1.362 C7.56400000000008,1.66 8.65300000000002,2.979 8.65300000000002,4.562 C8.65300000000002,4.926 8.65300000000002,6.333 8.65300000000002,6.908 C8.65300000000002,6.908 9.89100000000008,8.789 9.89100000000008,8.789 C10.0219999999999,8.988 10.0350000000001,9.244 9.92699999999991,9.456 ZM7,11 C7,10.997 7,10.415 7,11 ZM5.5,12 C4.74000000000001,12 4,11.786 4,11 C4,11 7,11 7,11 C7,11.786 6.25900000000001,12 5.5,12 Z "/>
</svg>
