<?xml version="1.0" encoding="utf-8"?>
<!DOCTYPE svg PUBLIC "-//W3C//DTD SVG 1.1//EN" "http://www.w3.org/Graphics/SVG/1.1/DTD/svg11.dtd">
<svg version="1.1" baseProfile="full"
 xmlns="http://www.w3.org/2000/svg"
 xmlns:xlink="http://www.w3.org/1999/xlink"
 xmlns:ev="http://www.w3.org/2001/xml-events" 
  height="41px" 
  width="36px" 
>
<path fill="rgb( 255, 255, 255 )"
 d="M18.463,40.922 C18.313,40.9740000000002 18.1559999999999,41 17.999,41 C17.842,41 17.686,40.9740000000002 17.535,40.922 C0.58299999999997,35.114 0.84900000000005,21.3499999999999 1.04300000000001,11.299 C1.06399999999996,10.2190000000001 1.08299999999997,9.19900000000007 1.08299999999997,8.21199999999999 C1.08299999999997,7.4380000000001 1.71699999999998,6.81100000000015 2.5,6.81100000000015 C8.55700000000002,6.81100000000015 13.168,5.09099999999989 17.0119999999999,1.39600000000019 C17.562,0.86700000000019 18.437,0.86700000000019 18.987,1.39600000000019 C22.831,5.09099999999989 27.443,6.81100000000015 33.5,6.81100000000015 C34.283,6.81100000000015 34.917,7.4380000000001 34.917,8.21199999999999 C34.917,9.19799999999987 34.937,10.2190000000001 34.957,11.299 C35.152,21.3490000000002 35.417,35.114 18.463,40.922 ZM32.125,11.3519999999999 C32.114,10.7460000000001 32.102,10.1590000000001 32.0940000000001,9.58300000000008 C26.421,9.346 21.883,7.64699999999993 17.999,4.30200000000013 C14.116,7.64699999999993 9.57899999999995,9.346 3.90599999999995,9.58300000000008 C3.89800000000002,10.1590000000001 3.88699999999994,10.7460000000001 3.875,11.3530000000001 C3.67999999999995,21.4560000000001 3.46000000000004,32.893 17.999,38.114 C32.54,32.893 32.3200000000001,21.4549999999999 32.125,11.3519999999999 ZM17.042,25.8629999999998 C16.766,26.1370000000002 16.403,26.2730000000001 16.0410000000001,26.2730000000001 C15.678,26.2730000000001 15.316,26.1370000000002 15.039,25.8629999999998 C15.039,25.8629999999998 11.12,21.9899999999998 11.12,21.9899999999998 C10.567,21.4430000000002 10.567,20.556 11.12,20.009 C11.673,19.4630000000002 12.5700000000001,19.4630000000002 13.123,20.009 C13.123,20.009 16.0410000000001,22.893 16.0410000000001,22.893 C16.0410000000001,22.893 22.877,16.136 22.877,16.136 C23.43,15.5889999999999 24.327,15.5889999999999 24.88,16.136 C25.433,16.683 25.433,17.569 24.88,18.116 C24.88,18.116 17.042,25.8629999999998 17.042,25.8629999999998 Z "/>
</svg>
