<?xml version="1.0" encoding="utf-8"?>
<!DOCTYPE svg PUBLIC "-//W3C//DTD SVG 1.1//EN" "http://www.w3.org/Graphics/SVG/1.1/DTD/svg11.dtd">
<svg version="1.1" baseProfile="full"
 xmlns="http://www.w3.org/2000/svg"
 xmlns:xlink="http://www.w3.org/1999/xlink"
 xmlns:ev="http://www.w3.org/2001/xml-events" 
  height="40px" 
  width="40px" 
>
<path fill="rgb( 255, 255, 255 )"
 d="M20,40 C8.97199999999998,40 0,31.028 0,20 C0,8.97199999999998 8.97199999999998,0 20,0 C31.028,0 40,8.97199999999998 40,20 C40,31.028 31.028,40 20,40 ZM20,2.99900000000002 C10.625,2.99900000000002 2.99900000000002,10.625 2.99900000000002,20 C2.99900000000002,29.374 10.625,37.001 20,37.001 C29.375,37.001 37.001,29.374 37.001,20 C37.001,10.625 29.375,2.99900000000002 20,2.99900000000002 ZM32.931,21.077 C32.93,21.077 32.929,21.077 32.929,21.077 C32.334,21.077 31.853,20.585 31.852,19.99 C31.851,19.395 32.332,18.9059999999999 32.927,18.9059999999999 C33.523,18.905 34.006,19.395 34.007,19.99 C34.008,20.5840000000001 33.526,21.077 32.931,21.077 ZM31.727,14.452 C31.557,14.5509999999999 31.37,14.5989999999999 31.187,14.5989999999999 C30.815,14.5989999999999 30.454,14.4059999999999 30.254,14.0619999999999 C29.955,13.548 30.13,12.8889999999999 30.644,12.5889999999999 C31.158,12.29 31.818,12.4639999999999 32.117,12.979 C32.416,13.4929999999999 32.242,14.153 31.727,14.452 ZM27.028,32.1120000000001 C26.857,32.213 26.67,32.259 26.486,32.259 C26.115,32.259 25.755,32.067 25.554,31.723 C25.255,31.2090000000001 25.429,30.55 25.943,30.25 C26.458,29.951 27.118,30.126 27.416,30.6400000000001 C27.715,31.154 27.542,31.8140000000001 27.028,32.1120000000001 ZM26.447,9.87400000000002 C26.264,9.87400000000002 26.079,9.827 25.909,9.72900000000004 C25.394,9.43100000000004 25.217,8.77199999999993 25.515,8.25700000000006 C25.813,7.74199999999996 26.471,7.56500000000005 26.987,7.86400000000003 C27.502,8.16100000000006 27.679,8.81899999999996 27.38,9.33500000000004 C27.181,9.68000000000006 26.819,9.87400000000002 26.447,9.87400000000002 ZM20.031,34.0060000000001 C20.031,34.0060000000001 20.03,34.0060000000001 20.029,34.0060000000001 C20.025,34.0060000000001 20.019,34.0060000000001 20.014,34.0060000000001 C20.01,34.0060000000001 20.004,34.0060000000001 20,34.0060000000001 C19.405,34.0060000000001 18.923,33.5239999999999 18.923,32.9290000000001 C18.923,32.3340000000001 19.405,31.8520000000001 20,31.8520000000001 C20.005,31.8520000000001 20.01,31.8520000000001 20.015,31.8520000000001 C20.018,31.8520000000001 20.023,31.8520000000001 20.027,31.8520000000001 C20.622,31.8510000000001 21.105,32.3309999999999 21.107,32.9269999999999 C21.108,33.521 20.626,34.0050000000001 20.031,34.0060000000001 ZM19.987,8.14799999999991 C19.391,8.14899999999989 18.908,7.66699999999992 18.908,7.07099999999991 C18.907,6.47700000000009 19.389,5.99399999999991 19.984,5.99299999999994 C20.58,5.99199999999996 21.062,6.47499999999991 21.062,7.06899999999996 C21.063,7.66399999999999 20.582,8.14699999999993 19.987,8.14799999999991 ZM14.067,9.74299999999994 C13.897,9.84099999999989 13.712,9.88799999999992 13.528,9.88799999999992 C13.157,9.88799999999992 12.795,9.69599999999991 12.596,9.35100000000011 C12.296,8.83799999999997 12.471,8.17699999999991 12.986,7.87899999999991 C13.501,7.57999999999993 14.16,7.75500000000011 14.459,8.26999999999998 C14.757,8.78400000000011 14.583,9.44299999999998 14.067,9.74299999999994 ZM19.048,19.048 C19.048,19.048 19.048,14.3810000000001 19.048,14.3810000000001 C19.048,13.855 19.474,13.4280000000001 20,13.4280000000001 C20.526,13.4280000000001 20.952,13.855 20.952,14.3810000000001 C20.952,14.3810000000001 20.952,20 20.952,20 C20.952,20.5250000000001 20.526,20.952 20,20.952 C20,20.952 13.048,20.952 13.048,20.952 C12.522,20.952 12.095,20.5250000000001 12.095,20 C12.095,19.4739999999999 12.522,19.048 13.048,19.048 C13.048,19.048 19.048,19.048 19.048,19.048 ZM8.80099999999999,14.6199999999999 C8.20499999999998,14.6199999999999 7.72300000000001,14.1379999999999 7.72300000000001,13.5419999999999 C7.72300000000001,12.9469999999999 8.20400000000001,12.4649999999999 8.80000000000001,12.4649999999999 C9.39499999999998,12.4649999999999 9.87599999999998,12.9469999999999 9.87700000000001,13.5409999999999 C9.87700000000001,14.136 9.39600000000002,14.6189999999999 8.80099999999999,14.6199999999999 ZM8.14800000000002,20.0060000000001 C8.14800000000002,20.6010000000001 7.666,21.0840000000001 7.072,21.085 C6.476,21.085 5.993,20.6030000000001 5.993,20.0070000000001 C5.993,19.412 6.47500000000002,18.9300000000001 7.07100000000003,18.9300000000001 C7.66500000000002,18.9300000000001 8.14699999999999,19.4110000000001 8.14800000000002,20.0060000000001 ZM8.267,25.5350000000001 C8.78199999999998,25.2360000000001 9.44,25.4110000000001 9.738,25.9259999999999 C10.038,26.441 9.86200000000002,27.0999999999999 9.34699999999998,27.3989999999999 C9.17700000000002,27.4970000000001 8.99200000000002,27.5440000000001 8.80799999999999,27.5440000000001 C8.43599999999998,27.5440000000001 8.07499999999999,27.3510000000001 7.875,27.0060000000001 C7.57600000000002,26.492 7.75200000000001,25.8330000000001 8.267,25.5350000000001 ZM14.079,30.2639999999999 C14.594,30.5619999999999 14.77,31.221 14.472,31.7360000000001 C14.271,32.0809999999999 13.91,32.2739999999999 13.538,32.2739999999999 C13.354,32.2739999999999 13.169,32.2270000000001 12.999,32.1279999999999 C12.484,31.8299999999999 12.308,31.171 12.607,30.6559999999999 C12.905,30.1410000000001 13.564,29.9659999999999 14.079,30.2639999999999 ZM30.666,25.51 C31.18,25.211 31.84,25.385 32.138,25.8989999999999 C32.438,26.413 32.264,27.0740000000001 31.75,27.3720000000001 C31.579,27.472 31.393,27.519 31.209,27.519 C30.838,27.519 30.477,27.327 30.277,26.9829999999999 C29.977,26.4690000000001 30.151,25.8099999999999 30.666,25.51 Z "/>
</svg>
