<?xml version="1.0" encoding="utf-8"?>
<!DOCTYPE svg PUBLIC "-//W3C//DTD SVG 1.1//EN" "http://www.w3.org/Graphics/SVG/1.1/DTD/svg11.dtd">
<svg version="1.1" baseProfile="full"
 xmlns="http://www.w3.org/2000/svg"
 xmlns:xlink="http://www.w3.org/1999/xlink"
 xmlns:ev="http://www.w3.org/2001/xml-events" 
  height="45px" 
  width="30px" 
>
<path stroke="rgb( 255, 255, 255 )" stroke-width="2px" stroke-linecap="butt" stroke-linejoin="miter" fill="none"
 d="M15,0 C23.284,0 30,6.71600000000001 30,15 C30,15 30,30 30,30 C30,38.284 23.284,45 15,45 C6.71600000000001,45 0,38.284 0,30 C0,30 0,15 0,15 C0,6.71600000000001 6.71600000000001,0 15,0 Z "/>
<path stroke="rgb( 255, 255, 255 )" stroke-width="2px" stroke-linecap="butt" stroke-linejoin="miter" fill="none"
 d="M15,8 C16.104,8 17,8.89499999999998 17,10 C17,10 17,15 17,15 C17,16.104 16.104,17 15,17 C13.895,17 13,16.104 13,15 C13,15 13,10 13,10 C13,8.89499999999998 13.895,8 15,8 Z "/>
</svg>
