<svg baseProfile="full" xmlns="http://www.w3.org/2000/svg" height="42" width="41"><path fill="#FFF" d="M39.311 40.31a2.283 2.283 0 0 1-3.232 0l-5.594-5.6a10.76 10.76 0 0 0 3.232-3.236l5.594 5.6a2.29 2.29 0 0 1 0 3.236zm-21.216-4.078C8.102 36.232 0 28.121 0 18.116 0 8.111 8.102 0 18.095 0 28.088 0 36.19 8.111 36.19 18.116c0 10.005-8.102 18.116-18.095 18.116zm0-32.418c-7.877 0-14.286 6.415-14.286 14.302s6.409 14.302 14.286 14.302c7.878 0 14.286-6.415 14.286-14.302S25.973 3.814 18.095 3.814zm-1.053 20.049a1.42 1.42 0 0 1-1.001.41c-.363 0-.725-.137-1.002-.41l-3.918-3.873a1.388 1.388 0 0 1 0-1.981 1.428 1.428 0 0 1 2.002 0l2.918 2.884 6.836-6.757a1.428 1.428 0 0 1 2.003 0 1.389 1.389 0 0 1 0 1.98l-7.838 7.747z"/></svg>