<svg baseProfile="full" xmlns="http://www.w3.org/2000/svg" height="32" width="42"><path fill="#FFF" d="M32 32l-1-2H21v-2h14c1.168 0 2.125-1.12 2.686-2.079h-6.463C28.516 25.921 28 24.891 28 22H4c-1.049 0-1-.927-1-2V3c0-1.073-.049-1 1-1h31c1.05 0 1-.073 1 1h2V2C38 .191 36.46.016 34.938.016H4.199C2.431.016.985 1.497.985 3.304v20.94C.985 26.052 2.234 28 4 28h14v2H8l-1 2M39.785 4.771h-7.564c-1.208 0-2.198 1.01-2.198 2.247v14.314c0 1.236.768 2.668 1.977 2.668h8c1.209 0 1.984-1.432 1.984-2.668V7.018c0-1.237-.989-2.247-2.199-2.247zm-3.781 17.803a.774.774 0 0 1-.766-.782c0-.432.344-.784.766-.784.421 0 .764.354.764.784a.773.773 0 0 1-.764.782zM40 19c0 .732.718 0 0 0h-8c.159.07 0-.268 0-1V7c0-.731-.717 0 0 0h8c.718 0 0-.731 0 0v12z"/></svg>