<svg baseProfile="full" xmlns="http://www.w3.org/2000/svg" height="40" width="38"><path fill="#FFF" d="M37 12h-9V1c0-.395-.749-1-1.143-1H11.143C10.748 0 10 .605 10 1v11H1c-.394 0-1 .748-1 1.143v26.143c0 .394.32.714.714.714h36.572c.394 0 .714-.32.714-.714V13.143c0-.395-.606-1.143-1-1.143zM10 38H2V14h8v24zm11 0h-4v-8h4v8zm5-25v25h-3v-8h1v-2H14v2h1v8h-3V2h14v11zm10 25h-8V14h8v24zM3.857 17v2.857m-1 6.571v2.858M18 4h-4c-.394 0 0-.394 0 0v4c0 .394-.394 0 0 0h2c.394 0 2 .394 2 0V4c0-.394.394 0 0 0zm6 0h-4c-.394 0 0-.394 0 0v4c0 .394-.394 0 0 0h2c.394 0 2 .394 2 0V4c0-.394.394 0 0 0zm-6 6h-4c-.394 0 0-.395 0 0v4c0 .394-.394 0 0 0h2c.394 0 2 .394 2 0v-4c0-.395.394 0 0 0zm6 0h-4c-.394 0 0-.395 0 0v4c0 .394-.394 0 0 0h2c.394 0 2 .394 2 0v-4c0-.395.394 0 0 0zm-6 6h-4c-.394 0 0-.395 0 0v4c0 .394-.394 0 0 0h2c.394 0 2 .394 2 0v-4c0-.395.394 0 0 0zm6 0h-4c-.394 0 0-.395 0 0v4c0 .394-.394 0 0 0h2c.394 0 2 .394 2 0v-4c0-.395.394 0 0 0zm-6 6h-4c-.394 0 0-.394 0 0v4c0 .394-.394 0 0 0h2c.394 0 2 .394 2 0v-4c0-.394.394 0 0 0zm6 0h-4c-.394 0 0-.394 0 0v4c0 .394-.394 0 0 0h2c.394 0 2 .394 2 0v-4c0-.394.394 0 0 0zM8 16H4c-.394 0 0-.395 0 0v4c0 .394-.394 0 0 0h2c.394 0 2 .394 2 0v-4c0-.395.394 0 0 0zm-4.143 7v2.857M8 22H4c-.394 0 0-.394 0 0v4c0 .394-.394 0 0 0h2c.394 0 2 .394 2 0v-4c0-.394.394 0 0 0zm-4.143 7v2.857M8 28H4c-.394 0 0-.394 0 0v4c0 .394-.394 0 0 0h2c.394 0 2 .394 2 0v-4c0-.394.394 0 0 0zm21.857-11v2.857M34 16h-4c-.394 0 0-.395 0 0v4c0 .394-.394 0 0 0h2c.394 0 2 .394 2 0v-4c0-.395.394 0 0 0zm-4.143 7v2.857M34 22h-4c-.394 0 0-.394 0 0v4c0 .394-.394 0 0 0h2c.394 0 2 .394 2 0v-4c0-.394.394 0 0 0zm-4.143 7v2.857M34 28h-4c-.394 0 0-.394 0 0v4c0 .394-.394 0 0 0h2c.394 0 2 .394 2 0v-4c0-.394.394 0 0 0z"/></svg>