<svg baseProfile="full" xmlns="http://www.w3.org/2000/svg" height="40" width="40"><path fill="#FFF" d="M20 40C8.972 40 0 31.028 0 20S8.972 0 20 0s20 8.972 20 20-8.972 20-20 20zm0-37.001C10.625 2.999 2.999 10.625 2.999 20c0 9.374 7.626 17.001 17.001 17.001S37.001 29.374 37.001 20c0-9.375-7.626-17.001-17.001-17.001zm12.931 18.078h-.002a1.086 1.086 0 0 1-.002-2.171 1.085 1.085 0 0 1 1.08 1.084 1.084 1.084 0 0 1-1.076 1.087zm-1.204-6.625a1.073 1.073 0 0 1-1.473-.39 1.078 1.078 0 1 1 1.473.39zm-4.699 17.66zm-.581-22.238zm-6.416 24.132H20a1.077 1.077 0 1 1 0-2.154h.027a1.078 1.078 0 1 1 .004 2.154zm-.044-25.858a1.077 1.077 0 1 1-.003-2.155 1.077 1.077 0 1 1 .003 2.155zm-5.92 1.595a1.075 1.075 0 0 1-1.471-.392 1.077 1.077 0 1 1 1.471.392zm4.981 9.305v-4.667a.953.953 0 1 1 1.904 0V20a.952.952 0 0 1-.952.952h-6.952a.953.953 0 0 1 0-1.904h6zM8.801 14.62a1.077 1.077 0 1 1-.002-2.154 1.077 1.077 0 0 1 .002 2.154zm-.653 5.386zm.119 5.529A1.076 1.076 0 1 1 9.349 27.4a1.076 1.076 0 0 1-1.082-1.865zm5.812 4.729A1.077 1.077 0 1 1 13 32.129a1.077 1.077 0 0 1 1.079-1.865zm16.587-4.754a1.076 1.076 0 1 1 1.084 1.862 1.077 1.077 0 0 1-1.084-1.862z"/></svg>