<svg baseProfile="full" xmlns="http://www.w3.org/2000/svg" height="40" width="37">
    <path fill="#FFF" d="M33.219 40H3.781C1.802 40 0 38.246 0 36.321c0-2.559 1.818-3.332 6.677-5.396 1.093-.465 2.332-.992 3.744-1.62l.064-.028.05.048c.472.445.995.868 1.555 1.254l.144.099-.16.073a212.293 212.293 0 0 1-4.605 2.01c-4.817 2.045-5.426 2.445-5.426 3.56 0 .765.776 1.69 1.738 1.69h29.437c.962 0 1.738-.925 1.738-1.69 0-1.115-.608-1.515-5.426-3.56a221.958 221.958 0 0 1-4.605-2.01l-.16-.073.144-.099a13.279 13.279 0 0 0 1.556-1.254l.05-.048.063.028c1.411.629 2.651 1.155 3.744 1.62C35.182 32.989 37 33.762 37 36.321 37 38.246 35.198 40 33.219 40zm-.33-18h-2.056c-.673 0-1.242-.336-1.617-.822-1.317 5.686-5.617 9.871-10.716 9.871-4.979 0-9.203-3.986-10.627-9.467-.074-.083-.129-.17-.191-.256A2.06 2.06 0 0 1 6.167 22H4.111c-1.135 0-2.055-.895-2.055-2v-6c0-1.105.92-2 2.055-2h2.056c0-6.628 5.522-12 12.333-12s12.333 5.372 12.333 12h2.056c1.135 0 2.055.895 2.055 2v6c0 1.105-.92 2-2.055 2zM6.167 14H4.111v6h2.056v-6zm3.572 6.592C11.033 21.594 14.886 23 18.5 23c.568 0 1.028.447 1.028 1 0 .552-.46 1-1.028 1-2.19 0-5.383-.576-7.819-1.608 1.587 3.387 4.494 5.669 7.819 5.669 5.015 0 9.097-5.175 9.097-11.537 0-6.361-4.082-11.536-9.097-11.536-5.016 0-9.097 5.175-9.097 11.536 0 1.064.123 2.089.336 3.068zM18.5 2C12.833 2 8.222 6.486 8.222 12c0 .081.023.157.025.238C9.946 7.401 13.902 4 18.5 4s8.554 3.401 10.253 8.238c.002-.081.025-.157.025-.238 0-5.514-4.611-10-10.278-10zm14.389 12h-2.056v6h2.056v-6z"/>
</svg>
