<svg baseProfile="full" xmlns="http://www.w3.org/2000/svg" height="13" width="9">
    <path fill="#24DEE0" d="M8.361 5.846h-.228V4.751c0-2.024-1.567-3.715-3.526-3.751a7.633 7.633 0 0 0-.214 0C2.434 1.036.867 2.727.867 4.751v1.095H.638c-.351 0-.638.371-.638.831v5.489c0 .458.287.834.638.834h7.724c.351 0 .638-.376.638-.834V6.677c0-.46-.287-.831-.639-.831zm-3.138 3.57v1.658a.35.35 0 0 1-.34.351h-.766a.35.35 0 0 1-.341-.351V9.416a1.005 1.005 0 0 1-.284-.71c0-.526.396-.978.901-.999.053-.002.161-.002.214 0 .504.021.901.473.901.999 0 .277-.105.528-.285.71zm1.406-3.57H4.607h-.214H2.37V4.751c0-1.206.956-2.203 2.13-2.203 1.173 0 2.129.997 2.129 2.203v1.095z"/>
</svg>
