<svg baseProfile="full" xmlns="http://www.w3.org/2000/svg" height="42" width="38">
    <path fill="#FFF" d="M32.444 11.678v9.546a1.822 1.822 0 0 1-1.824 1.819 1.822 1.822 0 0 1-1.825-1.819v-9.546c0-1.006.818-1.819 1.825-1.819 1.006 0 1.824.813 1.824 1.819zm-5.929-3.637v13.183a1.82 1.82 0 0 1-1.825 1.818 1.82 1.82 0 0 1-1.824-1.818V8.041c0-1.004.817-1.818 1.824-1.818 1.008 0 1.825.814 1.825 1.818zm-5.93 6.365v6.818a1.821 1.821 0 0 1-1.824 1.819 1.821 1.821 0 0 1-1.824-1.819v-6.818c0-1.004.817-1.819 1.824-1.819 1.007 0 1.824.815 1.824 1.819zM36.093 4.381v21.161a.91.91 0 0 1-.912.909h-7.447l3.28 12.258a1.818 1.818 0 0 1-1.764 2.287 1.825 1.825 0 0 1-1.762-1.35L24.2 27.359h-9.968l-3.288 12.287a1.828 1.828 0 0 1-2.232 1.288 1.817 1.817 0 0 1-1.293-2.225l3.28-12.258h-1.61l1.669-1.819h23.51v-20H4.165v19.03l-1.824 1.662V4.381a1.81 1.81 0 0 1-.912-1.566A1.82 1.82 0 0 1 3.253.996h31.928c1.007 0 1.824.814 1.824 1.819a1.81 1.81 0 0 1-.912 1.566zM14.221 17.537a.445.445 0 0 1 0 .629S3.058 30.336 2.999 30.394a1.189 1.189 0 0 1-1.678 0 1.181 1.181 0 0 1 0-1.673c.059-.058 12.271-11.184 12.271-11.184a.447.447 0 0 1 .629 0z"/>
</svg>
