<svg baseProfile="full" xmlns="http://www.w3.org/2000/svg" height="40" width="40">
    <path stroke="#FFF" fill="#FFF" d="M34.142 5.858A19.866 19.866 0 0 0 20 0 19.866 19.866 0 0 0 5.858 5.858 19.866 19.866 0 0 0 0 20c0 5.342 2.08 10.365 5.858 14.142A19.87 19.87 0 0 0 20 40a19.87 19.87 0 0 0 14.142-5.858A19.87 19.87 0 0 0 40 20a19.87 19.87 0 0 0-5.858-14.142zm-4.769 2.738l.88-3.653a18.291 18.291 0 0 1 7.298 10.153l-.46.089a1.808 1.808 0 0 0-1.41 1.337l-.179.72c-.002.008-.003.013-.016.018-.013.005-.018.001-.024-.004l-1.067-.8a1.814 1.814 0 0 0-1.919-.155l-1.332.697a1.783 1.783 0 0 0-.963 1.709c.044.72.491 1.324 1.166 1.578l.063.024c.008.002.013.004.016.017.004.013 0 .018-.005.023l-.83.954a.025.025 0 0 1-.033.005l-2.236-1.443a1.8 1.8 0 0 0-1.71-.132 1.796 1.796 0 0 0-1.048 1.356l-.172 1.055a1.799 1.799 0 0 0 .547 1.608l1.166 1.091c.01.009.011.023.004.033l-1.9 2.881a1.802 1.802 0 0 0-.297.921l-.165 4.125a.025.025 0 0 1-.008.017l-2.53 2.48a.026.026 0 0 1-.032.004l-1.641-.961a.03.03 0 0 1-.012-.017s-.796-3.612-.826-3.693l-.724-1.942a1.811 1.811 0 0 0-1.533-1.168l-3.313-.288a.023.023 0 0 1-.02-.013l-1.885-3.249a.025.025 0 0 1-.003-.017l.474-3.151a.027.027 0 0 1 .01-.017l2.894-2.183c.007-.005.017-.007.025-.003l2.804 1.17c.16.066.328.109.499.128l3.883.422a1.8 1.8 0 0 0 1.246-.327l2.573-1.844a1.81 1.81 0 0 0 .596-2.202l-.239-.534a1.796 1.796 0 0 0-1.548-1.065l-7.225-.396a.027.027 0 0 1-.012-.003l-.011-.008c-.004-.008-.001-.028.003-.034a.046.046 0 0 1 .014-.005l2.17-.585c.287-.077.552-.226.768-.43l2.653-2.503a.026.026 0 0 1 .015-.007l3.993-.411a1.804 1.804 0 0 0 1.568-1.372zM15.85 7.128l1.492-2.809c.221-.415.29-.898.196-1.358l-.203-.988a18.302 18.302 0 0 1 5.352.003s-.214.234-.251.249l-2.114.847a2.05 2.05 0 0 0-.785.564l-3.294 3.849a.25.25 0 0 1-.378.001c-.117-.131-.027-.336-.015-.358zm-7.77-.9v2.667a2.18 2.18 0 0 1-.998 1.836l-1.914 1.242c-.444.288-.82.655-1.118 1.092L2.313 15.61A18.247 18.247 0 0 1 8.08 6.228zm1.162 26.239l-.252 2.042a18.291 18.291 0 0 1-6.229-8.603h1.131c.139 0 .267.07.342.186l2.287 3.564c.103.16.225.305.366.433l2.225 2.03a.405.405 0 0 1 .13.348zM20 38.222c-3.419 0-6.62-.947-9.357-2.592l.363-2.945a2.188 2.188 0 0 0-.696-1.88s-2.274-2.08-2.293-2.109L5.73 25.132a2.175 2.175 0 0 0-1.838-1.004H2.249a18.241 18.241 0 0 1-.466-4.587l3.736-5.474c.164-.241.371-.444.617-.603l1.913-1.241a3.954 3.954 0 0 0 1.809-3.328V4.868a18.14 18.14 0 0 1 5.733-2.55l.205 1a.248.248 0 0 1-.024.167L14.28 6.294c-.093.175-.214.637-.214.637a2.012 2.012 0 0 0 .449 1.712c.389.453.945.707 1.537.707.029 0 .888.043 1.542-.709l3.294-3.849a.244.244 0 0 1 .096-.069l2.114-.848a2.03 2.03 0 0 0 .782-.56l.798-.927c1.404.373 2.743.909 3.993 1.589-.02.047-1.026 4.203-1.026 4.203a.027.027 0 0 1-.023.02l-3.993.411c-.392.04-.766.211-1.052.482l-2.653 2.503-.011.007-2.17.584a1.8 1.8 0 0 0-1.319 1.511 1.798 1.798 0 0 0 1.69 2.031l7.226.396a.03.03 0 0 1 .022.015l.239.534c.004.012.001.025-.009.032l-2.573 1.844c-.005.004-.011.005-.018.005l-3.89-.424-2.803-1.17a1.813 1.813 0 0 0-1.781.225l-2.894 2.183a1.795 1.795 0 0 0-.697 1.172l-.474 3.151c-.06.403.019.82.224 1.173l1.884 3.25c.295.507.819.841 1.404.892l3.313.288c.01.001.018.007.022.016l.725 1.947.754 3.448c.107.49.417.917.85 1.171l1.641.962a1.804 1.804 0 0 0 2.174-.269l2.531-2.48c.33-.324.521-.756.54-1.216l.165-4.125c0-.004.001-.009.004-.013l1.9-2.881a1.798 1.798 0 0 0-.273-2.31l-1.166-1.091a.027.027 0 0 1-.008-.023l.173-1.054c.001-.008.002-.013.015-.019.012-.006.017-.003.024.001l2.236 1.443a1.812 1.812 0 0 0 2.339-.332l.829-.954a1.805 1.805 0 0 0-.727-2.872l-.063-.023-.013-.006c-.005-.007-.006-.027-.002-.034l.012-.007 1.332-.698a.027.027 0 0 1 .027.003l1.067.8a1.8 1.8 0 0 0 1.687.256 1.8 1.8 0 0 0 1.146-1.265l.178-.72a.026.026 0 0 1 .02-.019l.52-.1A18.29 18.29 0 0 1 38.222 20c0 10.048-8.174 18.222-18.222 18.222z"/>
</svg>
