<svg baseProfile="full" xmlns="http://www.w3.org/2000/svg" height="41" width="36">
    <path fill="#FFF" d="M18.463 40.922a1.417 1.417 0 0 1-.928 0C.583 35.114.849 21.35 1.043 11.299c.021-1.08.04-2.1.04-3.087 0-.774.634-1.401 1.417-1.401 6.057 0 10.668-1.72 14.512-5.415a1.427 1.427 0 0 1 1.975 0c3.844 3.695 8.456 5.415 14.513 5.415.783 0 1.417.627 1.417 1.401 0 .986.02 2.007.04 3.087.195 10.05.46 23.815-16.494 29.623zm13.662-29.57c-.011-.606-.023-1.193-.031-1.769-5.673-.237-10.211-1.936-14.095-5.281-3.883 3.345-8.42 5.044-14.093 5.281-.008.576-.019 1.163-.031 1.77-.195 10.103-.415 21.54 14.124 26.761C32.54 32.893 32.32 21.455 32.125 11.352zM17.042 25.863c-.276.274-.639.41-1.001.41-.363 0-.725-.136-1.002-.41L11.12 21.99a1.39 1.39 0 0 1 0-1.981 1.43 1.43 0 0 1 2.003 0l2.918 2.884 6.836-6.757a1.428 1.428 0 0 1 2.003 0 1.389 1.389 0 0 1 0 1.98l-7.838 7.747z"/>
</svg>
