<?xml version="1.0" encoding="utf-8"?>
<!DOCTYPE svg PUBLIC "-//W3C//DTD SVG 1.1//EN" "http://www.w3.org/Graphics/SVG/1.1/DTD/svg11.dtd">
<svg version="1.1" baseProfile="full"
 xmlns="http://www.w3.org/2000/svg"
 xmlns:xlink="http://www.w3.org/1999/xlink"
 xmlns:ev="http://www.w3.org/2001/xml-events" 
  height="13px" 
  width="9px" 
>
<path fill="rgb( 36, 222, 224 )"
 d="M8.3610000000001,5.846 C8.3610000000001,5.846 8.13300000000004,5.846 8.13300000000004,5.846 C8.13300000000004,5.846 8.13300000000004,4.751 8.13300000000004,4.751 C8.13300000000004,2.727 6.56600000000003,1.036 4.60699999999997,1 C4.55300000000011,0.999 4.44599999999991,0.999 4.39300000000003,1 C2.43399999999997,1.036 0.86699999999996,2.727 0.86699999999996,4.751 C0.86699999999996,4.751 0.86699999999996,5.846 0.86699999999996,5.846 C0.86699999999996,5.846 0.63799999999992,5.846 0.63799999999992,5.846 C0.28700000000003,5.846 0,6.217 0,6.677 C0,6.677 0,12.166 0,12.166 C0,12.624 0.28700000000003,13 0.63799999999992,13 C0.63799999999992,13 8.36200000000008,13 8.36200000000008,13 C8.71299999999997,13 9,12.624 9,12.166 C9,12.166 9,6.677 9,6.677 C9,6.217 8.71299999999997,5.846 8.3610000000001,5.846 ZM5.22299999999996,9.416 C5.22299999999996,9.416 5.22299999999996,11.074 5.22299999999996,11.074 C5.22299999999996,11.264 5.06799999999998,11.425 4.88300000000004,11.425 C4.88300000000004,11.425 4.11699999999996,11.425 4.11699999999996,11.425 C3.93200000000002,11.425 3.77600000000007,11.264 3.77600000000007,11.074 C3.77600000000007,11.074 3.77600000000007,9.416 3.77600000000007,9.416 C3.59699999999998,9.234 3.49199999999996,8.983 3.49199999999996,8.706 C3.49199999999996,8.18 3.88799999999992,7.728 4.39300000000003,7.707 C4.44599999999991,7.705 4.55400000000009,7.705 4.60699999999997,7.707 C5.1110000000001,7.728 5.50800000000004,8.18 5.50800000000004,8.706 C5.50800000000004,8.983 5.40300000000002,9.234 5.22299999999996,9.416 ZM6.62899999999991,5.846 C6.62899999999991,5.846 4.60699999999997,5.846 4.60699999999997,5.846 C4.60699999999997,5.846 4.39300000000003,5.846 4.39300000000003,5.846 C4.39300000000003,5.846 2.36999999999989,5.846 2.36999999999989,5.846 C2.36999999999989,5.846 2.36999999999989,4.751 2.36999999999989,4.751 C2.36999999999989,3.545 3.32600000000002,2.548 4.5,2.548 C5.673,2.548 6.62899999999991,3.545 6.62899999999991,4.751 C6.62899999999991,4.751 6.62899999999991,5.846 6.62899999999991,5.846 Z "/>
</svg>
