<?xml version="1.0" encoding="utf-8"?>
<!DOCTYPE svg PUBLIC "-//W3C//DTD SVG 1.1//EN" "http://www.w3.org/Graphics/SVG/1.1/DTD/svg11.dtd">
<svg version="1.1" baseProfile="full"
 xmlns="http://www.w3.org/2000/svg"
 xmlns:xlink="http://www.w3.org/1999/xlink"
 xmlns:ev="http://www.w3.org/2001/xml-events" 
  height="42px" 
  width="38px" 
>
<path fill="rgb( 255, 255, 255 )"
 d="M32.444,11.6780000000001 C32.444,11.6780000000001 32.444,21.2239999999999 32.444,21.2239999999999 C32.444,22.229 31.626,23.0429999999999 30.6199999999999,23.0429999999999 C29.6130000000001,23.0429999999999 28.7950000000001,22.229 28.7950000000001,21.2239999999999 C28.7950000000001,21.2239999999999 28.7950000000001,11.6780000000001 28.7950000000001,11.6780000000001 C28.7950000000001,10.672 29.6130000000001,9.85899999999992 30.6199999999999,9.85899999999992 C31.626,9.85899999999992 32.444,10.672 32.444,11.6780000000001 ZM26.5150000000001,8.04099999999994 C26.5150000000001,8.04099999999994 26.5150000000001,21.2239999999999 26.5150000000001,21.2239999999999 C26.5150000000001,22.229 25.6980000000001,23.0419999999999 24.6900000000001,23.0419999999999 C23.683,23.0419999999999 22.866,22.229 22.866,21.2239999999999 C22.866,21.2239999999999 22.866,8.04099999999994 22.866,8.04099999999994 C22.866,7.03700000000003 23.683,6.22299999999996 24.6900000000001,6.22299999999996 C25.6980000000001,6.22299999999996 26.5150000000001,7.03700000000003 26.5150000000001,8.04099999999994 ZM20.585,14.4059999999999 C20.585,14.4059999999999 20.585,21.2239999999999 20.585,21.2239999999999 C20.585,22.229 19.768,23.0429999999999 18.761,23.0429999999999 C17.7539999999999,23.0429999999999 16.9369999999999,22.229 16.9369999999999,21.2239999999999 C16.9369999999999,21.2239999999999 16.9369999999999,14.4059999999999 16.9369999999999,14.4059999999999 C16.9369999999999,13.402 17.7539999999999,12.587 18.761,12.587 C19.768,12.587 20.585,13.402 20.585,14.4059999999999 ZM36.0930000000001,4.38100000000009 C36.0930000000001,4.38100000000009 36.0930000000001,25.5419999999999 36.0930000000001,25.5419999999999 C36.0930000000001,26.0440000000001 35.6849999999999,26.451 35.181,26.451 C35.181,26.451 27.7339999999999,26.451 27.7339999999999,26.451 C27.7339999999999,26.451 31.0139999999999,38.7090000000001 31.0139999999999,38.7090000000001 C31.2739999999999,39.6780000000001 30.6949999999999,40.675 29.721,40.934 C29.5640000000001,40.9760000000001 29.4059999999999,40.9960000000001 29.25,40.9960000000001 C28.444,40.9960000000001 27.7059999999999,40.4590000000001 27.4880000000001,39.646 C27.4880000000001,39.646 24.2,27.3589999999999 24.2,27.3589999999999 C24.2,27.3589999999999 14.232,27.3589999999999 14.232,27.3589999999999 C14.232,27.3589999999999 10.944,39.646 10.944,39.646 C10.6849999999999,40.616 9.68000000000006,41.191 8.71199999999999,40.934 C7.73800000000006,40.6759999999999 7.15900000000011,39.6790000000001 7.4190000000001,38.7090000000001 C7.4190000000001,38.7090000000001 10.6990000000001,26.451 10.6990000000001,26.451 C10.6990000000001,26.451 9.08899999999994,26.451 9.08899999999994,26.451 C9.58999999999992,25.905 10.1479999999999,25.297 10.758,24.6320000000001 C10.758,24.6320000000001 34.268,24.6320000000001 34.268,24.6320000000001 C34.268,24.6320000000001 34.268,4.63200000000006 34.268,4.63200000000006 C34.268,4.63200000000006 4.16499999999996,4.63200000000006 4.16499999999996,4.63200000000006 C4.16499999999996,4.63200000000006 4.16499999999996,23.662 4.16499999999996,23.662 C3.43499999999995,24.328 2.83500000000004,24.875 2.34099999999989,25.3240000000001 C2.34099999999989,25.3240000000001 2.34099999999989,4.38100000000009 2.34099999999989,4.38100000000009 C1.798,4.06600000000003 1.42900000000009,3.4860000000001 1.42900000000009,2.81500000000005 C1.42900000000009,1.80999999999995 2.24499999999989,0.99600000000009 3.25299999999993,0.99600000000009 C3.25299999999993,0.99600000000009 35.181,0.99600000000009 35.181,0.99600000000009 C36.1880000000001,0.99600000000009 37.0050000000001,1.80999999999995 37.0050000000001,2.81500000000005 C37.0050000000001,3.4860000000001 36.636,4.06500000000005 36.0930000000001,4.38100000000009 ZM14.221,17.537 C14.394,17.71 14.395,17.991 14.221,18.1659999999999 C14.221,18.1659999999999 3.05799999999999,30.336 2.99900000000002,30.394 C2.53600000000006,30.856 1.78400000000011,30.856 1.32099999999991,30.394 C0.85799999999995,29.932 0.85799999999995,29.183 1.32099999999991,28.721 C1.38000000000011,28.663 13.5920000000001,17.537 13.5920000000001,17.537 C13.7650000000001,17.364 14.048,17.365 14.221,17.537 Z "/>
</svg>
