<?xml version="1.0" encoding="utf-8"?>
<!DOCTYPE svg PUBLIC "-//W3C//DTD SVG 1.1//EN" "http://www.w3.org/Graphics/SVG/1.1/DTD/svg11.dtd">
<svg version="1.1" baseProfile="full"
 xmlns="http://www.w3.org/2000/svg"
 xmlns:xlink="http://www.w3.org/1999/xlink"
 xmlns:ev="http://www.w3.org/2001/xml-events" 
  height="42px" 
  width="41px" 
>
<path fill="rgb( 255, 255, 255 )"
 d="M39.3109999999999,40.3099999999999 C38.4200000000001,41.2040000000002 36.972,41.2040000000002 36.079,40.3099999999999 C36.079,40.3099999999999 30.4849999999999,34.71 30.4849999999999,34.71 C31.7809999999999,33.8760000000002 32.884,32.7719999999999 33.7170000000001,31.4740000000002 C33.7170000000001,31.4740000000002 39.3109999999999,37.0740000000001 39.3109999999999,37.0740000000001 C40.204,37.9679999999998 40.204,39.4180000000001 39.3109999999999,40.3099999999999 ZM18.095,36.232 C8.10200000000009,36.232 0,28.1210000000001 0,18.116 C0,8.11099999999988 8.10200000000009,0 18.095,0 C28.088,0 36.1900000000001,8.11099999999988 36.1900000000001,18.116 C36.1900000000001,28.1210000000001 28.088,36.232 18.095,36.232 ZM18.095,3.81399999999985 C10.2180000000001,3.81399999999985 3.80899999999997,10.2289999999998 3.80899999999997,18.116 C3.80899999999997,26.0030000000002 10.2180000000001,32.4180000000001 18.095,32.4180000000001 C25.973,32.4180000000001 32.3810000000001,26.0030000000002 32.3810000000001,18.116 C32.3810000000001,10.2289999999998 25.973,3.81399999999985 18.095,3.81399999999985 ZM17.0419999999999,23.8629999999998 C16.7660000000001,24.136 16.403,24.2730000000001 16.0409999999999,24.2730000000001 C15.6780000000001,24.2730000000001 15.316,24.136 15.039,23.8629999999998 C15.039,23.8629999999998 11.1210000000001,19.9899999999998 11.1210000000001,19.9899999999998 C10.567,19.4430000000002 10.567,18.556 11.1210000000001,18.009 C11.674,17.4630000000002 12.5699999999999,17.4630000000002 13.123,18.009 C13.123,18.009 16.0409999999999,20.893 16.0409999999999,20.893 C16.0409999999999,20.893 22.877,14.136 22.877,14.136 C23.4300000000001,13.5889999999999 24.327,13.5889999999999 24.8800000000001,14.136 C25.433,14.683 25.433,15.569 24.8800000000001,16.116 C24.8800000000001,16.116 17.0419999999999,23.8629999999998 17.0419999999999,23.8629999999998 Z "/>
</svg>
